<svg xmlns="http://www.w3.org/2000/svg" display="none">

    <symbol id="location" viewBox="0 0 10 14">
        <path fill-rule="evenodd" clip-rule="evenodd"
              d="M5 14C5 14 10 7.67011 10 4.94118C10 2.21224 7.76141 0 5 0C2.23859 0 0 2.21224 0 4.94118C0 7.67011 5 14 5 14ZM5 7C6.10455 7 7 6.10457 7 5C7 3.89543 6.10455 3 5 3C3.89545 3 3 3.89543 3 5C3 6.10457 3.89545 7 5 7Z"/>
    </symbol>

    <symbol id="phone" viewBox="0 0 14 14">
        <path d="M8.69271 2.44296C8.35948 2.3814 8.05345 2.59405 7.99001 2.91933C7.92657 3.24461 8.13989 3.56219 8.46405 3.62584C9.44003 3.81611 10.1936 4.5716 10.3846 5.55092C10.439 5.83283 10.6872 6.03849 10.973 6.03849C11.0113 6.03849 11.0497 6.03499 11.0887 6.028C11.4129 5.96294 11.6262 5.64606 11.5628 5.32008C11.2776 3.85739 10.1518 2.72766 8.69271 2.44296Z"/>
        <path d="M8.64914 0.00555083C8.49298 -0.0168338 8.33613 0.0293345 8.21134 0.128666C8.08307 0.229397 8.0029 0.374897 7.98548 0.537885C7.94853 0.867359 8.18625 1.16535 8.51529 1.20243C10.7844 1.45565 12.5482 3.22334 12.8033 5.49958C12.8375 5.80457 13.0933 6.03471 13.3987 6.03471C13.4217 6.03471 13.444 6.03331 13.467 6.03051C13.6266 6.01303 13.7688 5.93398 13.8692 5.80807C13.9689 5.68215 14.0142 5.52546 13.9961 5.36527C13.6782 2.52522 11.4802 0.321034 8.64914 0.00555083Z"/>
        <path fill-rule="evenodd" clip-rule="evenodd"
              d="M6.32216 7.68067C9.1145 10.4723 9.74796 7.2427 11.5259 9.01937C13.2399 10.7329 14.225 11.0762 12.0534 13.2473C11.7813 13.4659 10.053 16.096 3.97919 10.0238C-2.09542 3.9508 0.533105 2.22071 0.751773 1.94876C2.92868 -0.228308 3.26608 0.762568 4.9801 2.47613C6.758 4.25355 3.52983 4.88909 6.32216 7.68067Z"/>
    </symbol>

    <symbol id="problems1" viewBox="0 0 103 103">
        <path d="M87.9189 15.0811C78.1885 5.35065 65.265 0 51.5 0C37.735 0 24.8115 5.35065 15.0811 15.0811C5.35065 24.8115 0 37.735 0 51.5C0 65.265 5.35065 78.1885 15.0811 87.9189C24.8115 97.6494 37.7566 103 51.5 103C65.2434 103 78.1885 97.6494 87.9189 87.9189C97.6494 78.1885 103 65.265 103 51.5C103 37.735 97.6494 24.7899 87.9189 15.0811ZM20.4101 86.085L36.2679 70.2273C37.2388 69.2564 37.2388 67.6814 36.2679 66.7105C35.297 65.7396 33.722 65.7396 32.7512 66.7105L16.8934 82.5683C9.49309 74.3266 4.9623 63.4311 4.9623 51.5C4.9623 39.5689 9.49309 28.6519 16.8934 20.4101L32.1902 35.707C32.6649 36.1816 33.3121 36.4405 33.9378 36.4405C34.5635 36.4405 35.2107 36.2032 35.6854 35.707C36.6563 34.7361 36.6563 33.1611 35.6854 32.1902L20.4101 16.8934C28.6519 9.47151 39.5689 4.9623 51.5 4.9623C63.4311 4.9623 74.3481 9.49309 82.5899 16.8934L67.293 32.1902C66.3222 33.1611 66.3222 34.7361 67.293 35.707C67.7677 36.1816 68.415 36.4405 69.0406 36.4405C69.6663 36.4405 70.3136 36.2032 70.7882 35.707L86.085 20.4101C93.5069 28.6519 98.0161 39.5689 98.0161 51.5C98.0161 63.4311 93.4853 74.3481 86.085 82.5899L70.2273 66.7321C69.2564 65.7612 67.6814 65.7612 66.7105 66.7321C65.7396 67.703 65.7396 69.278 66.7105 70.2488L82.5683 86.1066C74.3481 93.5069 63.4527 98.0377 51.5 98.0377C39.5689 98.0377 28.6519 93.5069 20.4101 86.085Z"
              fill="white"/>
        <path d="M23.9485 52.1904C23.9485 53.226 23.6896 54.0027 23.1933 54.5205C22.6971 55.0383 22.0067 55.2972 21.1437 55.2972C20.2807 55.2972 19.5903 55.0383 19.0941 54.4774C18.5978 53.9164 18.3389 53.1397 18.3389 52.061V43.6682H14.1318V52.1473C14.1318 54.4558 14.7359 56.1818 15.9656 57.3253C17.1954 58.4688 18.8999 59.0513 21.1221 59.0513C23.3444 59.0513 25.092 58.4688 26.3433 57.3037C27.5947 56.1387 28.2204 54.3911 28.2204 52.0178V43.6466H23.9485V52.1904Z"
              fill="white"/>
        <path d="M38.0802 49.774L41.6833 46.6887V43.6898H30.7662V47.0771H36.5484L33.0748 50.2055L33.6789 52.3846H35.4481C36.2248 52.3846 36.8289 52.514 37.2604 52.7945C37.6919 53.075 37.9076 53.4418 37.9076 53.938C37.9076 54.4342 37.735 54.8226 37.3682 55.1031C37.023 55.3835 36.5484 55.5346 35.9443 55.5346C34.6713 55.5346 33.4631 54.952 32.3412 53.8085L29.709 56.4407C31.3272 58.2315 33.4631 59.116 36.1385 59.116C37.8429 59.116 39.2453 58.663 40.3456 57.7352C41.4244 56.8075 41.9853 55.5993 41.9853 54.089C42.0069 51.7805 40.6908 50.3565 38.0802 49.774Z"
              fill="white"/>
        <path d="M50.6586 43.3877C48.5658 43.3877 46.8829 44.1429 45.5884 45.6747C44.2939 47.185 43.6466 49.062 43.6466 51.2627C43.6466 53.4849 44.2939 55.362 45.5668 56.8722C46.8398 58.3825 48.5226 59.1376 50.637 59.1376C52.7298 59.1376 54.4342 58.3825 55.7287 56.8507C57.0232 55.3404 57.6705 53.4633 57.6705 51.2627C57.6705 49.0404 57.0233 47.185 55.7503 45.6747C54.4342 44.1429 52.7514 43.3877 50.6586 43.3877ZM52.6651 54.24C52.1688 55.0168 51.5 55.4051 50.6586 55.4051C49.8171 55.4051 49.1483 55.0168 48.6305 54.24C48.1127 53.4633 47.8538 52.4709 47.8538 51.2411C47.8538 50.0113 48.1127 48.9973 48.6089 48.2421C49.1052 47.487 49.774 47.0987 50.6154 47.0987C51.4353 47.0987 52.1041 47.487 52.6435 48.2637C53.1613 49.0404 53.4418 50.0329 53.4418 51.2411C53.4202 52.4709 53.1613 53.4633 52.6651 54.24Z"
              fill="white"/>
        <path d="M71.4571 56.8291C72.7516 55.3188 73.3988 53.4418 73.3988 51.2411C73.3988 49.0189 72.7516 47.1634 71.4786 45.6531C70.2057 44.1429 68.5228 43.3877 66.4085 43.3877C64.3157 43.3877 62.6328 44.1429 61.3383 45.6747C60.0438 47.185 59.3965 49.062 59.3965 51.2627C59.3965 53.4849 60.0438 55.362 61.3167 56.8722C62.5897 58.3825 64.2725 59.1376 66.3869 59.1376C68.4581 59.0945 70.1626 58.3393 71.4571 56.8291ZM64.3804 54.24C63.8626 53.4633 63.6037 52.4709 63.6037 51.2411C63.6037 50.0113 63.8626 48.9973 64.3588 48.2421C64.855 47.487 65.5239 47.0987 66.3653 47.0987C67.1852 47.0987 67.854 47.487 68.3934 48.2637C68.9112 49.0404 69.1917 50.0329 69.1917 51.2411C69.1917 52.4709 68.9328 53.4633 68.4365 54.24C67.9403 55.0168 67.2715 55.4051 66.43 55.4051C65.567 55.3835 64.8982 54.9952 64.3804 54.24Z"
              fill="white"/>
        <path d="M82.1152 59.0945C84.208 59.0945 85.9124 58.3393 87.207 56.8075C88.5015 55.2972 89.1487 53.4202 89.1487 51.2195C89.1487 48.9973 88.5015 47.1418 87.2285 45.6315C85.9556 44.1213 84.2727 43.3661 82.1584 43.3661C80.0656 43.3661 78.3827 44.1213 77.0882 45.6531C75.7937 47.1634 75.1464 49.0404 75.1464 51.2411C75.1464 53.4633 75.7937 55.3404 77.0666 56.8507C78.3396 58.3393 80.0224 59.0945 82.1152 59.0945ZM80.1087 48.2421C80.6049 47.487 81.2738 47.0987 82.1152 47.0987C82.9351 47.0987 83.6039 47.487 84.1433 48.2637C84.6611 49.0404 84.9416 50.0329 84.9416 51.2411C84.9416 52.4709 84.6827 53.4633 84.1864 54.24C83.6902 55.0168 83.0214 55.4051 82.1799 55.4051C81.3385 55.4051 80.6697 55.0168 80.1519 54.24C79.6341 53.4633 79.3752 52.4709 79.3752 51.2411C79.3536 50.0113 79.6125 48.9973 80.1087 48.2421Z"
              fill="white"/>
    </symbol>

    <symbol id="problems2" viewBox="0 0 110 112">
        <path d="M55.0081 17.8219C33.9998 17.8219 17.006 34.8999 17.006 56.0124C17.006 77.1248 33.9998 94.2029 55.0081 94.2029C76.0164 94.2029 93.0102 77.1248 93.0102 56.0124C93.0102 34.8999 76.0164 17.8219 55.0081 17.8219ZM55.0081 89.6982C36.5119 89.6982 21.4638 74.5755 21.4638 55.9876C21.4638 37.3998 36.5119 22.277 55.0081 22.277C73.5043 22.277 88.5524 37.3998 88.5524 55.9876C88.5524 74.5755 73.5043 89.6982 55.0081 89.6982Z"
              fill="white"/>
        <path d="M83.3558 49.4039C80.3757 36.4593 68.8002 26.7817 55.0081 26.7817C41.1668 26.7817 29.542 36.583 26.6605 49.4534C22.4982 67.67 36.2657 85.2431 55.0081 85.2431C73.9476 85.2431 87.6904 67.175 83.3558 49.4039ZM55.0081 31.2368C65.3768 31.2368 74.2678 37.7215 77.9128 46.8546C64.6872 44.1567 45.5261 44.1072 32.128 46.8546C35.7238 37.7215 44.6394 31.2368 55.0081 31.2368ZM43.8759 78.0901C38.5561 75.3675 34.3446 70.7638 32.1034 65.1454C34.32 65.5909 36.709 65.9869 39.295 66.284C41.9056 66.6057 43.8759 68.8333 43.8759 71.4569V78.0901ZM66.1403 78.0901V71.4816C66.1403 68.8333 68.1106 66.6057 70.7212 66.3087C73.3072 65.9869 75.6962 65.6157 77.9128 65.1702C75.6716 70.7638 71.4601 75.3675 66.1403 78.0901ZM79.2674 60.2448C76.6075 60.8883 73.5535 61.4328 70.1548 61.8288C65.3029 62.4228 61.6579 66.5562 61.6579 71.4569V79.8226C57.3478 81.0354 52.693 81.0602 48.3091 79.8226V71.4569C48.3091 66.5562 44.664 62.4228 39.8122 61.8288C36.438 61.408 33.3841 60.8883 30.6996 60.2448C30.207 57.4232 30.207 54.5521 30.6996 51.7552C44.1961 48.4634 65.7709 48.4881 79.2428 51.7552C79.76 54.5521 79.76 57.4232 79.2674 60.2448Z"
              fill="white"/>
        <path d="M55.0081 51.5325C51.3138 51.5325 48.3337 54.5521 48.3337 58.2399C48.3337 61.9526 51.3384 64.9474 55.0081 64.9474C58.6778 64.9474 61.6825 61.9278 61.6825 58.2399C61.6825 54.5273 58.6778 51.5325 55.0081 51.5325ZM55.0081 60.4675C53.7767 60.4675 52.7915 59.4527 52.7915 58.2399C52.7915 57.0024 53.8013 56.0124 55.0081 56.0124C56.2395 56.0124 57.2247 57.0272 57.2247 58.2399C57.2247 59.4775 56.2395 60.4675 55.0081 60.4675Z"
              fill="white"/>
        <path d="M57.003 6.11477L62.7169 10.3224C63.8252 11.1392 65.4014 10.4462 65.5492 9.06012L65.697 7.79783C74.8835 9.95115 83.208 14.6785 89.8331 21.5593C90.2764 22.0048 90.8429 22.2275 91.434 22.2275C92.0004 22.2275 92.5422 22.0295 92.9855 21.6088C93.8722 20.7425 93.8968 19.3317 93.0348 18.4654C85.6708 10.8174 76.4104 5.61976 66.1895 3.34268L66.3373 1.98139C66.4851 0.620096 65.1059 -0.394686 63.8498 0.149831L57.3724 3.02092C56.0917 3.59019 55.8947 5.298 57.003 6.11477Z"
              fill="white"/>
        <path d="M52.028 105.885L46.2895 101.678C45.1812 100.861 43.605 101.554 43.4818 102.94L43.3587 104.202C34.6648 102.197 26.6851 97.8412 20.2077 91.5298C19.3211 90.6635 17.9173 90.6882 17.0799 91.5793C16.2179 92.4703 16.2425 93.8811 17.1291 94.7226C24.3207 101.727 33.187 106.504 42.8908 108.657L42.743 110.019C42.5952 111.38 43.9744 112.395 45.2305 111.85L51.7078 108.954C52.9393 108.41 53.1363 106.702 52.028 105.885Z"
              fill="white"/>
        <path d="M9.10019 42.4489L7.84413 42.2262C10.5779 33.1426 15.7992 25.0986 23.0647 18.8862C24.0005 18.0942 24.0991 16.6834 23.3109 15.7428C22.5228 14.8023 21.119 14.7033 20.1831 15.4953C12.1295 22.4008 6.3664 31.3358 3.43558 41.4589L2.081 41.2362C0.726424 40.9886 -0.35724 42.3252 0.110706 43.6122L2.54895 50.2949C3.0169 51.582 4.71626 51.879 5.57827 50.8147L10.1346 45.3448C11.0458 44.3052 10.4548 42.6964 9.10019 42.4489Z"
              fill="white"/>
        <path d="M109.881 69.4273L107.418 62.7446C106.95 61.4576 105.251 61.1605 104.389 62.2248L99.857 67.6948C98.9703 68.759 99.5861 70.3678 100.916 70.5906L102.172 70.8134C99.6107 79.4019 94.7835 87.1241 88.1091 93.2128C87.1978 94.0296 87.1239 95.4404 87.9613 96.3562C88.4046 96.8512 88.9957 97.074 89.6114 97.074C90.1533 97.074 90.6705 96.8759 91.0891 96.5047C98.5024 89.7477 103.822 81.1592 106.581 71.5559L107.911 71.7786C109.265 72.0261 110.373 70.7144 109.881 69.4273Z"
              fill="white"/>
    </symbol>

    <symbol id="problems3" viewBox="0 0 122 122">
        <path d="M60.9877 22.9444C39.943 22.9444 22.9197 39.9676 22.9197 61.0123C22.9197 82.057 39.943 99.0803 60.9877 99.0803C82.0324 99.0803 99.0556 82.057 99.0556 61.0123C99.0556 39.9676 82.0324 22.9444 60.9877 22.9444ZM60.9877 94.5901C42.4595 94.5901 27.3852 79.5159 27.3852 60.9877C27.3852 42.4595 42.4595 27.3852 60.9877 27.3852C79.5159 27.3852 94.5901 42.4595 94.5901 60.9877C94.5901 79.5159 79.5159 94.5901 60.9877 94.5901Z"
              fill="white"/>
        <path d="M89.3844 54.4251C86.3992 41.5219 74.8036 31.8754 60.9877 31.8754C47.1223 31.8754 35.4774 41.6453 32.5909 54.4744C28.4214 72.6326 42.2127 90.1492 60.9877 90.1492C79.9846 90.1492 93.7266 72.1391 89.3844 54.4251ZM60.9877 36.3163C71.3743 36.3163 80.2807 42.7802 83.9321 51.8839C70.6835 49.1947 51.4892 49.1454 38.0679 51.8839C41.6946 42.7802 50.601 36.3163 60.9877 36.3163ZM49.8362 83.0192C44.5072 80.3054 40.2884 75.7165 38.0433 70.1161C40.2637 70.5602 42.6568 70.9549 45.2473 71.251C47.8625 71.5717 49.8362 73.7921 49.8362 76.4073V83.0192ZM72.1391 83.0192V76.4319C72.1391 73.7921 74.1128 71.5717 76.728 71.2756C79.3185 70.9549 81.7116 70.5848 83.9321 70.1407C81.687 75.7165 77.4682 80.3054 72.1391 83.0192ZM85.3137 65.2311C82.6491 65.8726 79.5899 66.4154 76.1852 66.8101C71.325 67.4022 67.6736 71.5223 67.6736 76.4073V84.7462C63.3561 85.9551 58.6932 85.9798 54.3017 84.7462V76.4073C54.3017 71.5223 50.6503 67.4022 45.7901 66.8101C42.4101 66.3907 39.3509 65.8726 36.6617 65.2311C36.1682 62.4186 36.1682 59.5567 36.6617 56.7689C50.1816 53.4876 71.7937 53.5122 85.289 56.7689C85.7824 59.5567 85.8071 62.4186 85.3137 65.2311Z"
              fill="white"/>
        <path d="M60.9877 56.5468C57.287 56.5468 54.3017 59.5567 54.3017 63.2328C54.3017 66.9335 57.3116 69.9187 60.9877 69.9187C64.6884 69.9187 67.6736 66.9088 67.6736 63.2328C67.6736 59.532 64.6884 56.5468 60.9877 56.5468ZM60.9877 65.4532C59.7541 65.4532 58.7672 64.4417 58.7672 63.2328C58.7672 61.9992 59.7788 61.0123 60.9877 61.0123C62.2212 61.0123 63.2081 62.0239 63.2081 63.2328C63.2328 64.4663 62.2212 65.4532 60.9877 65.4532Z"
              fill="white"/>
        <path d="M61.0617 10.8554C59.8281 10.8554 58.8413 11.8423 58.8413 13.0758C58.8413 14.3094 59.8281 15.2963 61.0617 15.2963C73.5207 15.3209 85.1656 20.2552 93.85 29.2109C94.294 29.655 94.8615 29.877 95.4536 29.877C96.021 29.877 96.5638 29.6797 97.0079 29.2603C97.8961 28.3968 97.9207 26.9905 97.0572 26.127C87.4847 16.2831 74.7296 10.8801 61.0617 10.8554Z"
              fill="white"/>
        <path d="M28.2241 29.1616C29.0876 28.2734 29.0629 26.8671 28.1747 26.0283C27.2866 25.1648 25.8803 25.1895 25.0415 26.0777C15.8884 35.4774 10.8554 47.9118 10.8554 61.0123C10.8554 61.3824 10.8554 61.7278 10.8801 62.0979C10.9047 63.3068 11.8916 64.269 13.1005 64.269C13.1252 64.269 13.1252 64.269 13.1498 64.269C14.3834 64.2443 15.3456 63.2328 15.3209 61.9992C15.3209 61.6785 15.2963 61.3577 15.2963 61.0123C15.2963 49.0467 19.8851 37.7225 28.2241 29.1616Z"
              fill="white"/>
        <path d="M61.037 106.704H60.9877C49.0467 106.704 37.7719 102.14 29.1863 93.8253C28.2981 92.9618 26.8918 92.9864 26.053 93.8746C25.1895 94.7628 25.2142 96.1691 26.1023 97.0079C35.5021 106.112 47.8872 111.145 60.9877 111.145H61.037C62.2706 111.145 63.2574 110.158 63.2574 108.924C63.2574 107.691 62.2706 106.704 61.037 106.704Z"
              fill="white"/>
        <path d="M108.949 59.8034C107.715 59.7788 106.704 60.7409 106.679 61.9745C106.432 74.0388 101.498 85.3383 92.8384 93.7759C91.9503 94.6394 91.9503 96.0457 92.7891 96.9092C93.2332 97.3533 93.8006 97.5753 94.3927 97.5753C94.9602 97.5753 95.503 97.378 95.947 96.9585C105.47 87.7068 110.849 75.3217 111.145 62.0732C111.145 60.8396 110.182 59.8281 108.949 59.8034Z"
              fill="white"/>
        <path d="M61.037 117.559H60.9877C46.1355 117.559 32.1221 111.835 21.4888 101.473C20.6006 100.61 19.1943 100.635 18.3555 101.523C17.492 102.411 17.5167 103.817 18.4048 104.656C29.877 115.832 45.0006 122 61.0123 122H61.0617C62.2952 122 63.2821 121.013 63.2821 119.78C63.2821 118.546 62.2706 117.559 61.037 117.559Z"
              fill="white"/>
        <path d="M4.44085 61.0123C4.44085 46.1355 10.1646 32.0975 20.5759 21.4641C21.4394 20.5759 21.4148 19.1697 20.5513 18.3308C19.6631 17.4673 18.2815 17.492 17.418 18.3555C6.16784 29.803 0 44.9513 0 61.0123C0 61.2837 0 61.5551 0 61.8265V62.0239C0.0246714 63.2328 1.01153 64.2196 2.22042 64.2196H2.24509C3.47866 64.1949 4.44085 63.1834 4.44085 61.9745V61.7771C4.44085 61.4811 4.44085 61.2344 4.44085 61.0123Z"
              fill="white"/>
        <path d="M119.804 59.7541H119.78C118.571 59.7541 117.584 60.7163 117.559 61.9498C117.312 76.9254 111.293 90.9634 100.561 101.449C99.6724 102.312 99.6724 103.719 100.536 104.582C100.98 105.026 101.547 105.248 102.115 105.248C102.682 105.248 103.225 105.026 103.669 104.607C115.24 93.2825 121.753 78.1589 122 61.9992C122 60.7656 121.013 59.7541 119.804 59.7541Z"
              fill="white"/>
        <path d="M61.037 4.44085C76.3826 4.46552 90.7414 10.51 101.473 21.5134C101.917 21.9575 102.485 22.1796 103.052 22.1796C103.62 22.1796 104.163 21.9575 104.607 21.5381C105.495 20.6746 105.495 19.2684 104.656 18.4049C93.0851 6.53792 77.5915 0.0246714 61.037 0C59.8034 0 58.8166 0.986855 58.8166 2.22042C58.8166 3.45399 59.8281 4.44085 61.037 4.44085Z"
              fill="white"/>
    </symbol>

    <symbol id="element1" viewBox="0 0 54 12">
        <path d="M38.8933 7.83596C38.7681 7.79811 38.643 7.76025 38.476 7.76025H32.0077C32.0912 6.58675 33.1762 5.67823 34.5116 5.67823H34.9706C36.3477 5.67823 37.4745 4.65615 37.4745 3.40694V2.27129C37.4745 1.02208 36.3477 0 34.9706 0H30.7558C29.3787 0 28.2519 1.02208 28.2519 2.27129V7.76025H19.4467V6.85174H21.2828C21.575 6.85174 21.8253 6.62461 21.8253 6.35962V4.58044C21.8253 4.31546 21.575 4.08833 21.2828 4.08833H19.4467V2.80126C19.4467 2.61199 19.2797 2.49842 19.1128 2.49842C18.9459 2.49842 18.779 2.64984 18.779 2.80126V4.05047H16.9428C16.6507 4.05047 16.4003 4.2776 16.4003 4.54259V6.32177C16.4003 6.58675 16.6507 6.81388 16.9428 6.81388H18.779V7.7224H15.524C15.3153 7.7224 15.1484 7.76025 14.9815 7.83596V11.0536C15.1484 11.1293 15.3153 11.1672 15.524 11.1672H38.476C38.6012 11.1672 38.7681 11.1293 38.8933 11.0915V7.83596Z"
              fill="#FF0000"/>
        <path d="M14.3555 7.91167C12.561 7.34385 10.3076 7.00315 9.47295 7.00315C8.13755 7.00315 5.67542 7.91167 5.17465 9.04732H0.459041C0.208655 9.04732 0 9.23659 0 9.46372C0 9.69085 0.208655 9.88013 0.459041 9.88013H5.17465C5.67542 11.0536 8.13755 11.9243 9.47295 11.9243C10.3493 11.9243 12.561 11.5836 14.3555 11.0158V7.91167Z"
              fill="#FF0000"/>
        <path d="M53.541 9.04732H48.8254C48.3246 7.87382 45.8625 7.00315 44.5271 7.00315C43.6507 7.00315 41.272 7.3817 39.4776 7.98738V11.0158C41.272 11.6215 43.6507 12 44.5271 12C45.8625 12 48.3246 11.0915 48.8254 9.95584H53.541C53.7914 9.95584 54 9.76656 54 9.53943C54 9.3123 53.7914 9.04732 53.541 9.04732Z"
              fill="#FF0000"/>
    </symbol>

    <symbol id="element2" viewBox="0 0 54 12">
        <path d="M32.0077 8.26025H38.3933V10.6672H15.524C15.5093 10.6672 15.4952 10.6669 15.4815 10.6664V8.22317C15.4952 8.22266 15.5093 8.2224 15.524 8.2224H18.779H18.9467V8.26025H19.4467H28.2519H28.7519V7.76025V2.27129C28.7519 1.34297 29.6078 0.5 30.7558 0.5H34.9706C36.1186 0.5 36.9745 1.34297 36.9745 2.27129V3.40694C36.9745 4.33526 36.1186 5.17823 34.9706 5.17823H34.5116C32.9656 5.17823 31.6145 6.24092 31.509 7.72478L31.4709 8.26025H32.0077ZM19.4467 6.35174H19.279V6.31388H18.779H16.9428C16.9347 6.31388 16.9264 6.31232 16.9181 6.30906C16.9109 6.3062 16.9048 6.30248 16.9003 6.29887V4.56549C16.9048 4.56187 16.9109 4.55815 16.9181 4.5553C16.9264 4.55203 16.9347 4.55047 16.9428 4.55047H18.779H18.9467V4.58833H19.4467H21.2828C21.2909 4.58833 21.2993 4.58989 21.3076 4.59315C21.3148 4.596 21.3208 4.59972 21.3253 4.60334V6.33672C21.3208 6.34034 21.3148 6.34406 21.3076 6.34691C21.2993 6.35018 21.2909 6.35174 21.2828 6.35174H19.4467ZM5.53906 9.46016L5.63214 9.24905C5.7095 9.07363 5.88424 8.86587 6.17233 8.64686C6.45471 8.43219 6.81418 8.23086 7.21094 8.05757C8.0136 7.707 8.89362 7.50315 9.47295 7.50315C10.1935 7.50315 12.1643 7.79022 13.8555 8.28245V10.6451C12.1684 11.1375 10.2319 11.4243 9.47295 11.4243C8.89034 11.4243 8.00909 11.2282 7.20878 10.8831C6.81276 10.7124 6.4547 10.5128 6.17371 10.2976C5.88787 10.0787 5.71296 9.86768 5.63453 9.68388L5.53906 9.46016ZM48.3655 9.24356L48.4774 9.50576L48.3679 9.7541C48.2905 9.92952 48.1158 10.1373 47.8277 10.3563C47.5453 10.571 47.1858 10.7723 46.7891 10.9456C45.9864 11.2962 45.1064 11.5 44.5271 11.5C43.7683 11.5 41.6815 11.1794 39.9776 10.6519V8.35124C41.6815 7.82372 43.7683 7.50315 44.5271 7.50315C45.1097 7.50315 45.9909 7.69925 46.7912 8.04431C47.1873 8.21506 47.5453 8.41467 47.8263 8.62983C48.1121 8.84871 48.287 9.05977 48.3655 9.24356Z"
              stroke="#FF0000"/>
    </symbol>

    <symbol id="element3" viewBox="0 0 39 30">
        <path d="M6.92419 16.0345C10.4798 16.2192 13.3992 13.4113 13.3992 9.93842C13.3992 7.20443 11.6027 4.91379 9.09501 4.13793V1.25616C9.09501 0.554188 8.53359 0 7.82246 0H6.66219C5.95106 0 5.38964 0.554188 5.38964 1.25616V4.13793C2.76968 4.95074 0.898282 7.46305 1.08542 10.3448C1.27256 13.3744 3.81766 15.8867 6.92419 16.0345Z"
              fill="#FF0000"/>
        <path d="M21.596 16.0345C25.1516 16.2192 28.071 13.4113 28.071 9.93842C28.071 7.20443 26.2745 4.91379 23.7668 4.13793V1.25616C23.7668 0.554188 23.2054 0 22.4943 0H21.334C20.6229 0 20.0614 0.554188 20.0614 1.25616V4.13793C17.4415 4.95074 15.5701 7.46305 15.7572 10.3448C15.9069 13.3744 18.4895 15.8867 21.596 16.0345Z"
              fill="#FF0000"/>
        <path d="M27.8839 22.9803H25.451V21.9828C25.451 21.6502 25.1516 21.3547 24.8148 21.3547H4.90307V18.8793C4.90307 18.5468 4.60364 18.2512 4.26679 18.2512C3.92994 18.2512 3.63051 18.5468 3.63051 18.8793V22.9803H1.42226V21.9828C1.42226 21.6502 1.12284 21.3547 0.785988 21.3547H0.636276C0.299424 21.3547 0 21.6502 0 21.9828V26.2685C0 26.601 0.299424 26.8965 0.636276 26.8965H0.785988C1.12284 26.8965 1.42226 26.601 1.42226 26.2685V25.2709H3.63051V29.3719C3.63051 29.7044 3.92994 30 4.26679 30C4.60364 30 4.90307 29.7044 4.90307 29.3719V26.8965H24.8522C25.189 26.8965 25.4885 26.601 25.4885 26.2685V25.2709H27.9213C28.2581 25.2709 28.5576 24.9754 28.5576 24.6429V23.6084C28.5201 23.2389 28.2581 22.9803 27.8839 22.9803Z"
              fill="#FF0000"/>
        <path d="M35.2197 6.09606C36.7168 6.09606 37.9145 4.91379 37.9145 3.43596C37.9145 1.95813 36.7168 0.775861 35.2197 0.775861C33.7226 0.775861 32.5249 1.95813 32.5249 3.43596C32.5249 4.91379 33.76 6.09606 35.2197 6.09606ZM35.2197 1.51478C36.3051 1.51478 37.166 2.36453 37.166 3.43596C37.166 4.50739 36.3051 5.35714 35.2197 5.35714C34.1343 5.35714 33.2734 4.50739 33.2734 3.43596C33.2734 2.36453 34.1717 1.51478 35.2197 1.51478Z"
              fill="#FF0000"/>
        <path d="M35.2197 12.968C36.7168 12.968 37.9145 11.7857 37.9145 10.3079C37.9145 8.83005 36.7168 7.64778 35.2197 7.64778C33.7226 7.64778 32.5249 8.83005 32.5249 10.3079C32.5249 11.7857 33.76 12.968 35.2197 12.968ZM35.2197 8.3867C36.3051 8.3867 37.166 9.23645 37.166 10.3079C37.166 11.3793 36.3051 12.2291 35.2197 12.2291C34.1343 12.2291 33.2734 11.3793 33.2734 10.3079C33.2734 9.23645 34.1717 8.3867 35.2197 8.3867Z"
              fill="#FF0000"/>
        <path d="M37.3157 16.4778H33.1612C32.2255 16.4778 31.477 17.2167 31.477 18.1404V27.8202C31.477 28.7438 32.2255 29.4828 33.1612 29.4828H37.3157C38.2514 29.4828 39 28.7438 39 27.8202V18.1404C38.9626 17.2167 38.214 16.4778 37.3157 16.4778Z"
              fill="#FF0000"/>
    </symbol>

    <symbol id="payment-icon" viewBox="0 0 54 54">
        <path d="M18.1986 41.3347C18.1849 41.2672 18.1649 41.2007 18.1385 41.1364C18.1121 41.0731 18.0795 41.0119 18.0415 40.955C18.0035 40.897 17.9592 40.8432 17.9107 40.7946C17.8622 40.7461 17.8084 40.7018 17.7504 40.6639C17.6934 40.6259 17.6323 40.5932 17.5679 40.5668C17.5047 40.5404 17.4382 40.5193 17.3707 40.5067C17.2346 40.4793 17.0944 40.4793 16.9594 40.5067C16.8919 40.5193 16.8254 40.5404 16.7611 40.5668C16.6978 40.5932 16.6366 40.6259 16.5797 40.6639C16.5217 40.7018 16.4679 40.7461 16.4194 40.7946C16.3709 40.8432 16.3266 40.897 16.2886 40.955C16.2496 41.0119 16.2179 41.0731 16.1916 41.1364C16.1652 41.2007 16.1441 41.2672 16.1314 41.3347C16.1177 41.4022 16.1104 41.4718 16.1104 41.5404C16.1104 41.6089 16.1177 41.6786 16.1314 41.7461C16.1441 41.8136 16.1652 41.88 16.1916 41.9433C16.2179 42.0076 16.2496 42.0688 16.2886 42.1258C16.3266 42.1838 16.3709 42.2376 16.4194 42.2861C16.4679 42.3346 16.5217 42.3789 16.5797 42.4169C16.6366 42.455 16.6978 42.4877 16.7611 42.514C16.8254 42.5404 16.8919 42.5615 16.9594 42.5742C17.0269 42.5879 17.0965 42.5953 17.165 42.5953C17.2336 42.5953 17.3032 42.5879 17.3707 42.5742C17.4382 42.5615 17.5047 42.5404 17.5679 42.514C17.6323 42.4877 17.6934 42.4549 17.7504 42.4169C17.8084 42.3789 17.8622 42.3346 17.9107 42.2861C17.9592 42.2376 18.0035 42.1838 18.0415 42.1258C18.0795 42.0688 18.1121 42.0076 18.1385 41.9433C18.1649 41.88 18.1849 41.8136 18.1986 41.7461C18.2123 41.6786 18.2197 41.6089 18.2197 41.5404C18.2197 41.4718 18.2123 41.4022 18.1986 41.3347Z"
              fill="white"/>
        <path d="M48.5149 41.6596C48.5108 41.649 48.5066 41.6386 48.5021 41.6282C47.5314 39.3565 45.2547 38.5169 42.5604 39.4372L35.2126 41.4694C34.7878 40.1828 33.7282 39.0879 32.2299 38.5318C32.2206 38.5284 32.2113 38.5251 32.2019 38.5219L24.125 35.7803C23.4528 34.9113 21.347 32.6876 17.4042 32.6876C14.6489 32.6876 12.2114 34.578 10.8169 36.6385H1.05469C0.472184 36.6385 0 37.1107 0 37.6933V50.9917C0 51.5742 0.472184 52.0464 1.05469 52.0464H7.32554C7.90805 52.0464 8.38023 51.5742 8.38023 50.9917V50.081H11.321C11.9035 50.081 12.3757 49.6087 12.3757 49.0262V48.7226C14.09 48.8722 14.6538 49.1974 16.2283 50.1053C17.439 50.8036 19.269 51.8589 22.5645 53.3408C22.5798 53.3476 22.5953 53.3542 22.6108 53.3603C23.2433 53.6091 24.4797 54 26.0041 54C27.0651 54 28.2658 53.8105 29.4983 53.2517L45.7396 47.4361C45.7685 47.4258 45.797 47.4141 45.8248 47.4013C47.377 46.6871 49.69 44.6742 48.5149 41.6596ZM6.27086 49.9368H2.10938V38.7479H6.27086V49.9368ZM10.2663 47.9713H8.38023V38.7479H10.2663V47.9713ZM44.982 45.4665L28.748 51.2795C28.7338 51.2846 28.7145 51.2922 28.7005 51.2979C28.6862 51.3037 28.672 51.3098 28.658 51.3162C26.397 52.3554 24.2479 51.7333 23.4056 51.4058C20.2224 49.9733 18.5234 48.9935 17.282 48.2776C15.5561 47.2823 14.7245 46.8026 12.3757 46.6086V38.1132C13.3754 36.4745 15.3142 34.797 17.4043 34.797C20.9888 34.797 22.5077 37.1286 22.5674 37.2227C22.6961 37.4322 22.8941 37.5901 23.1269 37.6691L31.509 40.5143C32.8477 41.0168 33.5552 42.1633 33.23 43.3067C33.08 43.8347 32.7332 44.2727 32.2537 44.5399C31.7784 44.8047 31.2289 44.8702 30.7051 44.7253L21.2559 41.7305C20.7002 41.5545 20.1077 41.8621 19.9318 42.4174C19.7558 42.9728 20.0633 43.5656 20.6186 43.7416L30.0843 46.7415C30.0943 46.7447 30.1044 46.7477 30.1145 46.7506C30.4924 46.8581 30.8771 46.9112 31.2596 46.9112C31.9597 46.9112 32.6521 46.7329 33.2805 46.3827C34.2521 45.8413 34.9548 44.9538 35.2589 43.8837C35.2832 43.7982 35.3047 43.7128 35.3234 43.6274L43.2423 41.4334C44.386 41.0427 45.8873 40.9019 46.5558 42.4416C47.2477 44.2492 45.4494 45.2435 44.982 45.4665Z"
              fill="white"/>
        <path d="M37.8696 13.8725C37.8559 13.805 37.8359 13.7385 37.8084 13.6742C37.7821 13.6109 37.7504 13.5497 37.7114 13.4927C37.6734 13.4347 37.6291 13.3809 37.5806 13.3324C37.5321 13.2839 37.4783 13.2396 37.4203 13.2016C37.3634 13.1637 37.3022 13.131 37.2389 13.1046C37.1746 13.0782 37.1081 13.0571 37.0417 13.0445C36.9056 13.017 36.7654 13.017 36.6293 13.0445C36.5618 13.0571 36.4953 13.0782 36.4321 13.1046C36.3677 13.131 36.3066 13.1637 36.2496 13.2016C36.1916 13.2396 36.1378 13.2839 36.0893 13.3324C36.0408 13.3809 35.9965 13.4347 35.9585 13.4927C35.9205 13.5497 35.8879 13.6109 35.8615 13.6742C35.8351 13.7385 35.814 13.805 35.8014 13.8725C35.7877 13.94 35.7803 14.0096 35.7803 14.0782C35.7803 14.1467 35.7877 14.2163 35.8014 14.2838C35.814 14.3513 35.8351 14.4178 35.8615 14.4811C35.8879 14.5454 35.9205 14.6066 35.9585 14.6636C35.9965 14.7216 36.0408 14.7754 36.0893 14.8239C36.1378 14.8724 36.1916 14.9167 36.2496 14.9547C36.3066 14.9927 36.3677 15.0253 36.4321 15.0517C36.4953 15.0781 36.5618 15.0981 36.6293 15.1118C36.6968 15.1256 36.7664 15.1329 36.835 15.1329C36.9035 15.1329 36.9731 15.1256 37.0417 15.1118C37.1081 15.0981 37.1746 15.0781 37.2389 15.0517C37.3022 15.0253 37.3634 14.9927 37.4203 14.9547C37.4783 14.9167 37.5321 14.8724 37.5806 14.8239C37.6291 14.7754 37.6734 14.7216 37.7114 14.6636C37.7504 14.6066 37.7821 14.5454 37.8084 14.4811C37.8359 14.4178 37.8559 14.3513 37.8696 14.2838C37.8833 14.2163 37.8896 14.1467 37.8896 14.0782C37.8896 14.0096 37.8833 13.94 37.8696 13.8725Z"
              fill="white"/>
        <path d="M52.9453 3.57231H46.6745C46.092 3.57231 45.6198 4.04454 45.6198 4.6271V5.5378H42.679C42.0965 5.5378 41.6243 6.01002 41.6243 6.59258V6.89615C39.91 6.74647 39.3462 6.42139 37.7718 5.51343C36.5611 4.81517 34.7311 3.75985 31.4355 2.27799C31.4202 2.27103 31.4048 2.26459 31.3891 2.25848C30.3164 1.83635 27.5049 1.00582 24.5021 2.3668L20.258 3.88653L16.6806 0.30892C16.2688 -0.102973 15.6009 -0.102973 15.1891 0.30892L3.44429 12.0547C3.0644 12.4347 2.99152 13.0936 3.44429 13.5465L23.5136 33.6176C23.8348 33.9389 24.5868 34.036 25.0053 33.6176L35.7278 22.8943C36.0065 22.9183 36.2958 22.9313 36.5956 22.9313C39.3511 22.9313 41.7885 21.0409 43.1829 18.9805H52.9453C53.5278 18.9805 54 18.5083 54 17.9257V4.6271C54 4.04454 53.5278 3.57231 52.9453 3.57231ZM15.9347 2.54643L18.3386 4.95049C17.624 5.39245 16.7979 5.62893 15.9347 5.62893C15.0715 5.62893 14.2455 5.39255 13.5309 4.95049L15.9347 2.54643ZM8.08555 15.2047L5.68171 12.8005L8.08555 10.3964C8.52747 11.1111 8.76393 11.9373 8.76393 12.8005C8.76393 13.6637 8.52757 14.49 8.08555 15.2047ZM24.2595 31.38L21.8561 28.9764C23.3235 28.0707 25.1953 28.0707 26.6628 28.9764L24.2595 31.38ZM28.1824 27.4568C25.8518 25.766 22.6672 25.766 20.3366 27.4568L9.60504 16.7242C10.4286 15.5914 10.8733 14.2306 10.8733 12.8005C10.8733 11.3703 10.4288 10.0097 9.60504 8.87682L12.0115 6.47023C13.1443 7.29391 14.5048 7.7386 15.9349 7.7386C17.3649 7.7386 18.7255 7.29391 19.8582 6.47023L22.1394 8.75162C21.6471 8.82429 21.1672 8.98652 20.7195 9.23597C19.9635 9.65726 19.3704 10.2881 19.001 11.0514C17.8114 11.2717 16.7099 11.8477 15.8459 12.7117C13.5019 15.0561 13.5019 18.8705 15.846 21.2148C17.018 22.3869 18.5575 22.9731 20.0972 22.9731C21.6367 22.9731 23.1763 22.387 24.3484 21.2148C25.1109 20.4522 25.6451 19.5149 25.9127 18.4935L29.4738 19.7022C29.0729 21.5594 29.4835 23.5133 30.591 25.048L28.1824 27.4568ZM21.7701 17.0869C21.7794 17.0903 21.7887 17.0937 21.7981 17.0969L23.907 17.8127C23.7478 18.5316 23.3874 19.1925 22.8569 19.7232C21.3352 21.2448 18.8592 21.245 17.3377 19.7232C15.816 18.2014 15.816 15.7253 17.3377 14.2035C17.7047 13.8362 18.1379 13.5492 18.6099 13.3546C18.8046 14.9749 19.9711 16.4193 21.7701 17.0869ZM32.1107 23.5281C31.7036 22.8646 31.4732 22.1074 31.4369 21.3346C31.9421 21.6998 32.5595 22.0577 33.2969 22.3418L32.1107 23.5281ZM41.6242 17.5052C40.6246 19.1441 38.6858 20.8215 36.5956 20.8215C36.2046 20.8215 35.8381 20.7937 35.4954 20.7441C35.494 20.7439 35.4927 20.7437 35.4913 20.7435C33.2136 20.4126 31.9884 19.1179 31.5845 18.6053C31.563 18.5737 31.4713 18.4537 31.4577 18.4338C31.3349 18.2142 31.1334 18.0376 30.8765 17.9504L22.4909 15.104C21.1527 14.6018 20.4453 13.4557 20.7695 12.3128C20.7697 12.312 20.77 12.3113 20.7702 12.3106C20.7705 12.3097 20.7707 12.3088 20.7709 12.3079C20.9216 11.7816 21.2678 11.345 21.7462 11.0785C22.2214 10.8136 22.7708 10.7479 23.2948 10.8931L32.744 13.8878C33.2994 14.064 33.8922 13.7562 34.0681 13.2009C34.244 12.6456 33.9366 12.0528 33.3813 11.8767L25.8661 9.49503L25.8005 9.42942C25.7999 9.42879 25.7992 9.42805 25.7985 9.42742L21.9078 5.53632L25.252 4.33872C25.2632 4.33461 25.2772 4.32944 25.2883 4.3249C25.2912 4.32374 25.2967 4.32163 25.2994 4.32047C25.3138 4.31467 25.3279 4.30855 25.3419 4.30212C27.6028 3.26295 29.7518 3.88495 30.5942 4.21257C33.7775 5.64507 35.4766 6.62486 36.718 7.34074C38.4439 8.33614 39.2755 8.81575 41.6242 9.00972V17.5052ZM45.6198 16.8707H43.7337V7.64737H45.6198V16.8707ZM51.8906 16.8707H47.7291V5.68188H51.8906V16.8707Z"
              fill="white"/>
    </symbol>

    <symbol id="circles" viewBox="0 0 426.667 426.667">
        <g>
            <g>
                <g>
                    <path d="M213.333,106.667c-58.88,0-106.667,47.787-106.667,106.667S154.453,320,213.333,320S320,272.213,320,213.333
				S272.213,106.667,213.333,106.667z"/>
                    <path d="M213.333,0C95.467,0,0,95.467,0,213.333s95.467,213.333,213.333,213.333S426.667,331.2,426.667,213.333
				S331.2,0,213.333,0z M213.333,384c-94.293,0-170.667-76.373-170.667-170.667S119.04,42.667,213.333,42.667
				S384,119.04,384,213.333S307.627,384,213.333,384z"/>
                </g>
            </g>
        </g>
    </symbol>

    <symbol id="checkbox" viewBox="0 0 78.369 78.369">
        <g>
            <path d="M78.049,19.015L29.458,67.606c-0.428,0.428-1.121,0.428-1.548,0L0.32,40.015c-0.427-0.426-0.427-1.119,0-1.547l6.704-6.704
		c0.428-0.427,1.121-0.427,1.548,0l20.113,20.112l41.113-41.113c0.429-0.427,1.12-0.427,1.548,0l6.703,6.704
		C78.477,17.894,78.477,18.586,78.049,19.015z"/>
        </g>
    </symbol>

    <symbol id="money" viewBox="0 0 401.601 401.6">
        <g>
            <g>
                <path d="M116.682,229.329c11.286,0,22.195-0.729,32.518-2.086V114.094c-10.322-1.356-21.232-2.085-32.518-2.085
			c-64.441,0-116.681,23.693-116.681,52.921v11.477C0.001,205.634,52.241,229.329,116.682,229.329z"/>
                <path d="M116.682,288.411c11.286,0,22.195-0.729,32.518-2.084v-33.166c-10.325,1.356-21.229,2.095-32.518,2.095
			c-56.25,0-103.199-18.054-114.227-42.082c-1.606,3.5-2.454,7.124-2.454,10.839v11.477
			C0.001,264.718,52.241,288.411,116.682,288.411z"/>
                <path d="M149.199,314.823v-2.578c-10.325,1.356-21.229,2.095-32.518,2.095c-56.25,0-103.199-18.054-114.227-42.082
			C0.848,275.757,0,279.381,0,283.096v11.477c0,29.229,52.24,52.922,116.681,52.922c12.887,0,25.282-0.95,36.873-2.7
			c-2.873-5.877-4.355-12.075-4.355-18.496V314.823z"/>
                <path d="M284.92,22.379c-64.441,0-116.681,23.693-116.681,52.921v11.477c0,29.228,52.24,52.921,116.681,52.921
			c64.44,0,116.681-23.693,116.681-52.921V75.3C401.601,46.072,349.36,22.379,284.92,22.379z"/>
                <path d="M284.92,165.626c-56.25,0-103.199-18.053-114.227-42.082c-1.606,3.499-2.454,7.123-2.454,10.839v11.477
			c0,29.228,52.24,52.921,116.681,52.921c64.44,0,116.681-23.693,116.681-52.921v-11.477c0-3.716-0.848-7.34-2.454-10.839
			C388.119,147.573,341.17,165.626,284.92,165.626z"/>
                <path d="M284.92,224.71c-56.25,0-103.199-18.054-114.227-42.082c-1.606,3.499-2.454,7.123-2.454,10.839v11.477
			c0,29.229,52.24,52.922,116.681,52.922c64.44,0,116.681-23.693,116.681-52.922v-11.477c0-3.716-0.848-7.34-2.454-10.839
			C388.119,206.657,341.17,224.71,284.92,224.71z"/>
                <path d="M284.92,286.983c-56.25,0-103.199-18.054-114.227-42.082c-1.606,3.5-2.454,7.123-2.454,10.838v11.478
			c0,29.228,52.24,52.921,116.681,52.921c64.44,0,116.681-23.693,116.681-52.921v-11.478c0-3.715-0.848-7.34-2.454-10.838
			C388.119,268.928,341.17,286.983,284.92,286.983z"/>
                <path d="M284.92,346.066c-56.25,0-103.199-18.053-114.227-42.081c-1.606,3.5-2.454,7.125-2.454,10.838V326.3
			c0,29.228,52.24,52.921,116.681,52.921c64.44,0,116.681-23.693,116.681-52.921v-11.478c0-3.715-0.848-7.34-2.454-10.838
			C388.119,328.012,341.17,346.066,284.92,346.066z"/>
            </g>
        </g>
    </symbol>

    <symbol id="gallery" viewBox="0 0 439.296 439.296">
        <g>
            <g>
                <path d="M421.376,46.336H17.92C8.192,46.336,0,54.528,0,64.256V375.04c0,9.728,8.192,17.92,17.92,17.92h403.456
			c9.728,0,17.92-8.192,17.92-17.92V64.256C439.296,54.016,431.616,46.336,421.376,46.336z M403.456,260.864l-73.216-58.368
			c-6.656-5.12-16.384-5.12-23.04,0.512l-82.432,71.68l-109.056-122.88c-3.584-3.584-8.704-6.144-13.824-6.144
			s-9.728,2.048-13.312,5.632L35.84,208.64V82.176h367.616V260.864z"/>
            </g>
        </g>
        <g>
            <g>
                <path d="M219.648,92.928c-32.256,0-58.88,26.624-58.88,58.88c0,32.256,26.112,58.88,58.88,58.88s58.88-26.624,58.88-58.88
			C278.528,119.04,251.904,92.928,219.648,92.928z"/>
            </g>
        </g>
    </symbol>

    <symbol id="home" viewBox="0 0 460.298 460.297">
        <g>
            <g>
                <path d="M230.149,120.939L65.986,256.274c0,0.191-0.048,0.472-0.144,0.855c-0.094,0.38-0.144,0.656-0.144,0.852v137.041
			c0,4.948,1.809,9.236,5.426,12.847c3.616,3.613,7.898,5.431,12.847,5.431h109.63V303.664h73.097v109.64h109.629
			c4.948,0,9.236-1.814,12.847-5.435c3.617-3.607,5.432-7.898,5.432-12.847V257.981c0-0.76-0.104-1.334-0.288-1.707L230.149,120.939
			z"/>
                <path d="M457.122,225.438L394.6,173.476V56.989c0-2.663-0.856-4.853-2.574-6.567c-1.704-1.712-3.894-2.568-6.563-2.568h-54.816
			c-2.666,0-4.855,0.856-6.57,2.568c-1.711,1.714-2.566,3.905-2.566,6.567v55.673l-69.662-58.245
			c-6.084-4.949-13.318-7.423-21.694-7.423c-8.375,0-15.608,2.474-21.698,7.423L3.172,225.438c-1.903,1.52-2.946,3.566-3.14,6.136
			c-0.193,2.568,0.472,4.811,1.997,6.713l17.701,21.128c1.525,1.712,3.521,2.759,5.996,3.142c2.285,0.192,4.57-0.476,6.855-1.998
			L230.149,95.817l197.57,164.741c1.526,1.328,3.521,1.991,5.996,1.991h0.858c2.471-0.376,4.463-1.43,5.996-3.138l17.703-21.125
			c1.522-1.906,2.189-4.145,1.991-6.716C460.068,229.007,459.021,226.961,457.122,225.438z"/>
            </g>
        </g>
    </symbol>

    <symbol id="partner" viewBox="0 -51 512.0001 512">
        <path d="m408.378906 77.921875c3.902344-3.910156 3.902344-10.242187 0-14.140625-3.910156-3.910156-10.238281-3.910156-14.140625 0-3.910156 3.898438-3.910156 10.230469 0 14.140625 3.902344 3.898437 10.230469 3.898437 14.140625 0zm0 0"/>
        <path d="m130.488281 98.628906c3.902344-3.898437 3.902344-10.230468 0-14.140625-3.910156-3.898437-10.238281-3.898437-14.140625 0-3.910156 3.910157-3.910156 10.242188 0 14.140625 3.902344 3.910156 10.230469 3.910156 14.140625 0zm0 0"/>
        <path d="m71.640625 156.210938 29.929687-29.941407c3.90625-3.90625 3.902344-10.234375 0-14.140625-3.90625-3.90625-10.238281-3.902344-14.144531 0l-29.929687 29.941406c-3.902344 3.90625-3.902344 10.238282.003906 14.140626 3.902344 3.90625 10.234375 3.90625 14.140625 0zm0 0"/>
        <path d="m441.367188 127.210938c3.90625 3.90625 10.238281 3.90625 14.144531 0 3.90625-3.902344 3.90625-10.234376 0-14.140626l-19.949219-19.949218c-3.90625-3.90625-10.238281-3.90625-14.144531 0-3.902344 3.902344-3.902344 10.234375 0 14.140625zm0 0"/>
        <path d="m509.070312 116.070312-113.121093-113.140624c-3.820313-3.824219-9.992188-3.917969-13.925781-.207032-8.785157 8.277344-50.078126 47.164063-50.675782 47.746094-.035156.035156-.074218.066406-.109375.101562-9.78125 9.78125-19.410156 14.140626-31.222656 14.140626-24.148437 0-42.648437 6.820312-58.011719 21.371093-12.597656-11.929687-26.875-18.097656-46.800781-20.15625l-49.992187-49.996093c-3.90625-3.90625-10.238282-3.90625-14.144532 0l-128.136718 128.140624c-3.804688 3.800782-3.929688 9.941407-.222657 13.898438.078125.082031.144531.164062.222657.242188 0 0 83.382812 83.253906 83.5 83.367187l-3.53125 3.53125c-13.671876 13.671875-13.679688 35.8125.003906 49.496094 6.476562 6.46875 15.375 10.3125 25.109375 10.214843-.105469 9.605469 3.605469 18.5 10.246093 25.140626 6.746094 6.746093 15.761719 10.324218 25.109376 10.226562-.101563 9.597656 3.605468 18.488281 10.246093 25.128906 6.476563 6.46875 15.371094 10.3125 25.109375 10.214844-.105468 9.605469 3.605469 18.5 10.246094 25.140625 13.644531 13.644531 35.84375 13.644531 49.492188 0l3.539062-3.539063 3.539062 3.539063c13.644532 13.644531 35.84375 13.644531 49.492188 0 6.625-6.625 10.34375-15.503906 10.25-25.121094 9.550781.097657 18.449219-3.578125 25.109375-10.238281 6.914063-6.914062 10.320313-16.027344 10.226563-25.109375 9.695312.101563 18.554687-3.671875 25.125-10.242187 6.652343-6.648438 10.355468-15.558594 10.246093-25.140626 9.292969.09375 18.328125-3.4375 25.113281-10.21875 13.675782-13.675781 13.675782-35.8125 0-49.492187l-3.527343-3.527344c69.722656-69.644531-18.476563 18.625 111.496093-111.371093 3.90625-3.90625 3.90625-10.234376 0-14.140626zm-484.925781 35.066407 113.996094-113.992188 38.417969 38.417969-113.972656 113.988281zm72.894531 129.324219c-5.859374-5.859376-5.859374-15.347657 0-21.210938l35.359376-35.359375c5.851562-5.847656 15.363281-5.84375 21.210937 0 5.871094 5.875 5.871094 15.347656 0 21.21875l-35.347656 35.347656c-5.851563 5.84375-15.375 5.84375-21.222657.003907zm35.359376 35.359374c-5.863282-5.867187-5.871094-15.351562 0-21.21875l35.351562-35.351562c5.871094-5.867188 15.347656-5.871094 21.21875 0 5.847656 5.847656 5.871094 15.339844 0 21.207031-.003906.003907-.003906.003907-.003906.007813l-35.355469 35.355468c-5.847656 5.847657-15.363281 5.847657-21.210937 0zm35.351562 35.347657c-5.859375-5.855469-5.859375-15.347657 0-21.207031l35.359375-35.359376c5.847656-5.847656 15.359375-5.847656 21.214844.007813 5.773437 5.761719 5.945312 15.253906-.003907 21.207031 0 0 0 0-.003906.003906l-35.34375 35.34375c-5.851562 5.847657-15.375 5.847657-21.222656.003907zm35.359375 35.363281c-5.863281-5.867188-5.871094-15.351562 0-21.21875l35.351563-35.351562c5.863281-5.863282 15.347656-5.871094 21.214843 0 5.902344 5.902343 5.816407 15.398437 0 21.210937l-35.355469 35.359375c-5.851562 5.84375-15.363281 5.84375-21.210937 0zm77.777344 0c-5.84375 5.847656-15.359375 5.847656-21.207031 0l-3.539063-3.539062 17.679687-17.679688c1.195313-1.195312 2.273438-2.472656 3.273438-3.796875l3.789062 3.792969c.003907 0 .003907 0 .007813.003906 0 0 .003906.003906.003906.003906 5.863281 5.863282 5.863281 15.34375-.007812 21.214844zm106.074219-106.074219c-5.851563 5.84375-15.371094 5.84375-21.21875 0l-45.960938-45.957031c-3.90625-3.90625-10.238281-3.90625-14.144531 0-3.902344 3.902344-3.902344 10.234375 0 14.140625l45.964843 45.964844c5.863282 5.859375 5.867188 15.34375-.003906 21.214843-5.871094 5.871094-15.359375 5.847657-21.207031 0l-45.960937-45.972656c-3.902344-3.902344-10.234376-3.902344-14.140626 0-3.90625 3.90625-3.90625 10.238282-.003906 14.144532l45.960938 45.96875c5.847656 5.847656 5.847656 15.363281 0 21.207031-2.828125 2.832031-6.597656 4.394531-10.609375 4.394531-9.503907 0-12.566407-7.484375-21.578125-15.363281-.089844-9.210938-3.714844-17.855469-10.234375-24.375-6.632813-6.640625-15.515625-10.347657-25.113281-10.253907.097656-9.613281-3.625-18.496093-10.25-25.113281-6.914063-6.914062-16.027344-10.316406-25.109376-10.222656.199219-19.722656-15.773437-35.574219-35.351562-35.371094.097656-9.714843-3.699219-18.5625-10.25-25.113281-13.644531-13.648438-35.847656-13.648438-49.492188 0l-17.6875 17.6875-23.828124-23.757812 117.695312-117.714844c14.574219 1.664062 24.386719 5.855468 33.382812 14.21875l-28.253906 28.25c-15.582031 15.59375-15.582031 40.96875.003906 56.570312 15.597657 15.585938 40.976563 15.589844 56.570313-.003906l28.289063-28.285156c18.28125 18.285156 89.203124 89.210937 102.527343 102.539062 5.847657 5.84375 5.847657 15.359375.003907 21.203125zm-3.53125-53.019531-84.859376-84.863281 7.070313-7.070313c3.90625-3.90625 3.90625-10.238281 0-14.144531-3.90625-3.902344-10.234375-3.902344-14.144531 0l-49.5 49.503906c-7.792969 7.792969-20.488282 7.792969-28.285156 0-7.792969-7.800781-7.792969-20.492187-.003907-28.289062 10.257813-10.253907 30.476563-30.46875 40.722657-40.710938 11.859374-11.859375 25.921874-17.152343 45.585937-17.152343 14.144531 0 26.355469-4.25 37.796875-13.25l99.574219 102.160156c-65.089844 64.921875-52.242188 52.105468-53.957031 53.816406zm68.101562-67.960938-98.960938-101.53125 36.101563-34.011718 99.1875 99.207031zm0 0"/>
    </symbol>

    <symbol id="ruble" viewBox="0 0 512 512">
        <path d="m288.134 319.2c88.291 0 159.6-71.458 159.6-159.6 0-88.004-71.596-159.6-159.6-159.6h-160.667c-8.284 0-15 6.716-15 15v209.933h-33.2c-8.284 0-15 6.716-15 15v64.267c0 8.284 6.716 15 15 15h33.2v34.267h-33.2c-8.284 0-15 6.716-15 15v64.267c0 8.284 6.716 15 15 15h33.2v49.266c0 8.284 6.716 15 15 15h64.267c8.284 0 15-6.716 15-15v-49.267h97.466c8.284 0 15-6.716 15-15v-64.267c0-8.284-6.716-15-15-15h-97.467v-34.266zm-81.401-224.933h81.4c36.024 0 65.333 29.309 65.333 65.333s-29.309 65.333-65.333 65.333h-81.4z"/>
    </symbol>

    <symbol id="service" viewBox="0 0 512.021 512.021">
        <g>
            <path d="m17.646 404.82 230.179-230.18c-13.851-45.097-2.638-95.428 29.051-130.376 31.258-34.473 79.425-50.555 125.139-42.004 15.294 2.861 29.736 8.963 44.265 14.349l-52.628 50.951 9.979 39.805 39.453 11.261 52.893-51.777c3.661 10.145 7.743 20.246 10.737 30.613 6.804 23.56 7.041 48.842.707 72.533-11.801 44.132-46.228 79.986-89.753 93.762-25.997 8.228-54.31 8.355-80.38.347l-230.179 230.18c-23.393 23.395-66.195 23.906-89.463 0-23.518-24.166-23.483-64.284 0-89.464z"/>
        </g>
    </symbol>

    <symbol id="user" viewBox="-42 0 512 512.002">
        <path d="m210.351562 246.632812c33.882813 0 63.222657-12.152343 87.195313-36.128906 23.972656-23.972656 36.125-53.304687 36.125-87.191406 0-33.875-12.152344-63.210938-36.128906-87.191406-23.976563-23.96875-53.3125-36.121094-87.191407-36.121094-33.886718 0-63.21875 12.152344-87.191406 36.125s-36.128906 53.308594-36.128906 87.1875c0 33.886719 12.15625 63.222656 36.132812 87.195312 23.976563 23.96875 53.3125 36.125 87.1875 36.125zm0 0"/>
        <path d="m426.128906 393.703125c-.691406-9.976563-2.089844-20.859375-4.148437-32.351563-2.078125-11.578124-4.753907-22.523437-7.957031-32.527343-3.308594-10.339844-7.808594-20.550781-13.371094-30.335938-5.773438-10.15625-12.554688-19-20.164063-26.277343-7.957031-7.613282-17.699219-13.734376-28.964843-18.199219-11.226563-4.441407-23.667969-6.691407-36.976563-6.691407-5.226563 0-10.28125 2.144532-20.042969 8.5-6.007812 3.917969-13.035156 8.449219-20.878906 13.460938-6.707031 4.273438-15.792969 8.277344-27.015625 11.902344-10.949219 3.542968-22.066406 5.339844-33.039063 5.339844-10.972656 0-22.085937-1.796876-33.046874-5.339844-11.210938-3.621094-20.296876-7.625-26.996094-11.898438-7.769532-4.964844-14.800782-9.496094-20.898438-13.46875-9.75-6.355468-14.808594-8.5-20.035156-8.5-13.3125 0-25.75 2.253906-36.972656 6.699219-11.257813 4.457031-21.003906 10.578125-28.96875 18.199219-7.605469 7.28125-14.390625 16.121094-20.15625 26.273437-5.558594 9.785157-10.058594 19.992188-13.371094 30.339844-3.199219 10.003906-5.875 20.945313-7.953125 32.523437-2.058594 11.476563-3.457031 22.363282-4.148437 32.363282-.679688 9.796875-1.023438 19.964844-1.023438 30.234375 0 26.726562 8.496094 48.363281 25.25 64.320312 16.546875 15.746094 38.441406 23.734375 65.066406 23.734375h246.53125c26.625 0 48.511719-7.984375 65.0625-23.734375 16.757813-15.945312 25.253906-37.585937 25.253906-64.324219-.003906-10.316406-.351562-20.492187-1.035156-30.242187zm0 0"/>
    </symbol>

    <symbol id="word" viewBox="0 0 31.519 31.519">
        <g>
            <g>
                <path d="M11.184,0L3.021,8.619v22.9h25.477V0H11.184z M10.463,3.624v3.819H6.847L10.463,3.624z M26.528,29.55H4.991V9.413h7.443
			V1.97h14.094V29.55z"/>
                <path d="M13.5,15.211c0.127,0.046,0.238,0.111,0.335,0.197c0.102,0.095,0.196,0.213,0.278,0.351
			c0.095,0.16,0.188,0.345,0.268,0.532l0.62,1.764l-1.68,4.828l-2.107-6.003c-0.135-0.372-0.235-0.679-0.296-0.92
			c-0.079-0.3-0.085-0.408-0.085-0.435c0-0.102,0.036-0.178,0.127-0.256c0.096-0.085,0.271-0.129,0.506-0.129h0.59v-1.079H6.701
			v1.079h0.37c0.3,0,0.538,0.043,0.688,0.125c0.144,0.079,0.257,0.198,0.346,0.367c0.039,0.072,0.158,0.363,0.502,1.32l3.794,10.6
			h0.852l2.564-7.236l2.579,7.236h0.891l3.564-10.303c0.322-0.982,0.479-1.342,0.549-1.469c0.076-0.136,0.155-0.248,0.232-0.336
			c0.065-0.074,0.137-0.135,0.209-0.179c0.074-0.044,0.154-0.075,0.244-0.095c0.102-0.021,0.225-0.032,0.361-0.032h0.37v-1.079
			h-4.461v1.079h0.368c0.352,0,0.634,0.048,0.84,0.142c0.124,0.058,0.169,0.127,0.169,0.271c0,0.135-0.051,0.503-0.383,1.462
			l-2.028,5.868l-2.035-5.779c-0.327-0.913-0.394-1.327-0.394-1.515c0-0.2,0.064-0.284,0.115-0.33
			c0.046-0.045,0.174-0.117,0.508-0.117h0.7v-1.079h-5.595v1.079h0.369C13.194,15.142,13.368,15.164,13.5,15.211z"/>
            </g>
        </g>
    </symbol>

</svg>